<?xml version="1.0" encoding="UTF-8" standalone="no"?>
<!DOCTYPE svg PUBLIC "-//W3C//DTD SVG 1.1//EN" "http://www.w3.org/Graphics/SVG/1.1/DTD/svg11.dtd">
<svg width="100%" height="100%" viewBox="0 0 1080 1080" version="1.1" xmlns="http://www.w3.org/2000/svg" xmlns:xlink="http://www.w3.org/1999/xlink" xml:space="preserve" xmlns:serif="http://www.serif.com/" style="fill-rule:evenodd;clip-rule:evenodd;stroke-linejoin:round;stroke-miterlimit:2;">
    <g transform="matrix(0.836964,0,0,0.836964,-147.41,91.4419)">
        <path d="M465.199,795.506L176.125,795.506L176.125,650.888L321.323,650.888L321.323,276.365L465.199,276.365L465.199,470.672L649.865,470.672L649.865,276.365L814.016,276.365L920.811,465.48L1028.2,276.622L1028.2,276.365L1250.69,276.365C1381.96,276.365 1466.5,343.853 1466.5,458.806L1466.5,460.289C1466.5,582.658 1372.32,647.18 1243.27,647.18L1172.08,647.18L1172.08,795.506L1028.2,795.506L1028.2,539.785L992.007,598.974L992.007,795.506L847.389,795.506L847.389,601.199L793.741,512.861L793.741,795.506L649.865,795.506L649.865,598.232L465.199,598.232L465.199,795.506ZM1172.08,534.452L1240.31,534.452C1291.48,534.452 1322.63,507.753 1322.63,466.964L1322.63,465.48C1322.63,420.982 1291.48,397.25 1239.57,397.25L1172.08,397.25L1172.08,534.452Z" style="fill:rgb(160,48,187);"/>
    </g>
</svg>
